HIERARCHY
ROOT pelvis
{
	OFFSET 0.000000 0.000000 0.000000
	CHANNELS 6 Xposition Yposition Zposition Zrotation Xrotation Yrotation
	JOINT lfemur
	{
		OFFSET 11.446000 0.000000 0.000000
		CHANNELS 3 Zrotation Xrotation Yrotation
		JOINT ltibia
		{
			OFFSET 0.000000 -42.030400 0.000000
			CHANNELS 3 Zrotation Xrotation Yrotation
			JOINT lfoot
			{
				OFFSET 0.000000 -39.930200 0.000000
				CHANNELS 3 Zrotation Xrotation Yrotation
				JOINT ltoes
				{
					OFFSET 0.000000 0.000000 11.775800
					CHANNELS 3 Zrotation Xrotation Yrotation
					End Site
					{
					    OFFSET 0.000000 0.000000 5.000000
					}
				}
			}
		}
	}
	JOINT rfemur
	{
		OFFSET -11.446000 0.000000 0.000000
		CHANNELS 3 Zrotation Xrotation Yrotation
		JOINT rtibia
		{
			OFFSET 0.000000 -42.030400 0.000000
			CHANNELS 3 Zrotation Xrotation Yrotation
			JOINT rfoot
			{
				OFFSET 0.000000 -39.930200 0.000000
				CHANNELS 3 Zrotation Xrotation Yrotation
				JOINT rtoes
				{
					OFFSET 0.000000 0.000000 11.775800
					CHANNELS 3 Zrotation Xrotation Yrotation
					End Site
					{
					    OFFSET 0.000000 0.000000 5.000000
					}
				}
			}
		}
	}
	JOINT thorax
	{
		OFFSET 0.000000 11.255600 -5.000000
		CHANNELS 3 Zrotation Xrotation Yrotation
		JOINT head
		{
			OFFSET 0.000000 43.799300 0.000000
			CHANNELS 3 Zrotation Xrotation Yrotation
			End Site
			{
			    OFFSET 0.000000 5.000000 0.000000
			}
		}
		JOINT lclavicle
		{
			OFFSET 0.000000 39.863000 0.000000
			CHANNELS 3 Zrotation Xrotation Yrotation
			JOINT lhumerus
			{
				OFFSET 17.380600 4.958300 0.000000
				CHANNELS 3 Zrotation Xrotation Yrotation
				JOINT lradius
				{
					OFFSET 0.000000 -27.561300 0.000000
					CHANNELS 3 Zrotation Xrotation Yrotation
					JOINT lhand
					{
						OFFSET 0.000000 -26.933000 0.000000
						CHANNELS 3 Zrotation Xrotation Yrotation
						End Site
						{
						    OFFSET 0.000000 -5.000000 0.000000
						}
					}
				}
			}
		}
		JOINT rclavicle
		{
			OFFSET 0.000000 39.863000 0.000000
			CHANNELS 3 Zrotation Xrotation Yrotation
			JOINT rhumerus
			{
				OFFSET -17.380600 4.958300 0.000000
				CHANNELS 3 Zrotation Xrotation Yrotation
				JOINT rradius
				{
					OFFSET 0.000000 -27.561300 0.000000
					CHANNELS 3 Zrotation Xrotation Yrotation
					JOINT rhand
					{
						OFFSET 0.000000 -26.933000 0.000000
						CHANNELS 3 Zrotation Xrotation Yrotation
						End Site
						{
						    OFFSET 0.000000 -5.000000 0.000000
						}
					}
				}
			}
		}
	}
}
MOTION
Frames:	9
Frame Time:	0.0333333
4.96244 86.1492 -158.425 8.46587 10.8208 -3.25769 -10.5778 26.5985 -6.67773 0.0560151 15.9834 0.530363 13.4095 41.0568 -17.192 -2.86751e-015 -5 3.59179e-015 -5.87695 -51.5225 -2.56142 -0.243096 36.1169 0.205498 -0.901977 20.2527 -1.26161 1.98785e-015 -5 -0 -6.12521 7.32831 -5.74588 5.7073 -25.3421 0.178405 3.97569e-016 3.18055e-015 -1.59028e-015 19.8138 -13.3007 -43.5504 144.346 -27.9697 110.353 -0.678199 3.23287 23.7064 3.97569e-016 3.18055e-015 -1.59028e-015 -7.61341 35.0699 36.5959 -121.718 -44.7883 -93.6367 0.233987 1.92899 -13.8534 
5.12796 86.1088 -143.489 10.2855 9.97747 -3.60234 -12.5227 25.7241 -5.59566 0.153445 28.8659 0.77414 17.752 45.9802 -20.9807 -1.93811e-015 -5 -3.99088e-015 -6.32886 -45.5735 -1.8282 -0.0760103 19.689 0.00622529 0.42495 23.9636 -5.00047 -3.97569e-016 -5 -0 -7.89936 8.11942 -5.7793 5.97122 -25.4775 0.613292 8.82781e-032 6.36111e-015 -7.95139e-016 20.5433 -11.8537 -44.6891 140.132 -32.1984 107.561 -0.638135 3.14037 22.98 8.82781e-032 6.36111e-015 -7.95139e-016 -5.78135 32.3413 33.718 -120.27 -45.4588 -92.4623 0.18593 1.7226 -12.3438 
4.62909 85.2274 -128.954 8.33878 8.3992 -3.70156 -10.2634 20.8213 -2.09377 0.511314 48.2844 0.587513 15.599 42.7859 -18.6222 6.95656e-017 -5 7.98176e-016 -2.24256 -41.2272 -4.41684 -0.0847303 20.8018 -0.0204715 -1.37033 23.9012 -0.456543 7.94778e-017 -5 3.1927e-015 -5.63839 9.87257 -4.92951 5.31445 -25.2573 -0.572798 -3.97569e-016 -3.18055e-015 -7.95139e-016 19.4416 -10.8782 -44.9012 132.35 -38.5572 101.952 -0.518944 2.84448 20.7005 -3.97569e-016 -3.18055e-015 -7.95139e-016 -5.77407 27.3307 32.4465 -118.104 -46.394 -90.6903 0.207015 1.81634 -13.0288 
4.18628 83.5691 -115.197 6.54626 6.29452 -3.79329 -6.92418 13.9042 1.05 1.67563 68.3178 -0.711723 8.82336 34.5281 -11.0362 -1.52071e-015 -5 7.98176e-016 1.12725 -38.6457 -5.42005 -0.2802 37.9497 0.297002 -4.96827 7.59223 -2.52997 -1.98785e-015 -5 -0 -3.61026 12.8637 -4.14892 4.89483 -26.1526 -0.706517 3.97569e-016 -3.18055e-015 -0 17.3994 -9.64679 -43.8313 122.213 -44.5529 94.0346 -0.409699 2.53686 18.3652 3.97569e-016 -3.18055e-015 -0 -6.3669 19.5702 32.5918 -114.624 -47.7357 -87.8115 0.184245 1.71507 -12.2899 
2.96072 81.7842 -101.938 2.58904 5.49011 -4.28097 0.683939 3.82853 4.01085 14.5241 86.4302 -13.5901 8.17203 24.4691 -12.0787 -5.36701e-016 -5 -1.59635e-015 8.07951 -34.1177 0.751484 -0.557107 49.9024 0.20064 -6.87743 -4.43703 -10.3075 -3.97569e-016 -5 -0 0.749015 14.8336 -2.7976 3.85713 -27.6006 -0.907673 -3.97569e-016 0 -0 13.8552 -6.97208 -41.6824 110.017 -49.236 83.9465 -0.52535 2.86171 20.8242 -3.97569e-016 0 -0 -7.54487 9.34797 34.1797 -110.291 -49.1539 -84.1789 0.181828 1.70418 -12.2116 
2.20565 80.8999 -89.1529 -0.318961 6.65877 -1.34206 6.79968 -12.8656 4.29361 174.111 79.2826 -173.318 5.49222 14.5757 -9.65319 -5.61571e-016 -5 3.99088e-016 10.1085 -26.8313 -1.16794 -0.634542 53.0403 0.390831 -5.40731 -14.0082 -15.3301 -6.56007e-016 -5 1.59635e-015 4.75311 14.451 -4.20077 2.67168 -28.3895 -2.07726 -3.97569e-016 0 7.95139e-016 10.7033 -2.66872 -39.2644 99.9405 -51.5655 75.3434 -0.41247 2.54546 18.4304 -3.97569e-016 0 7.95139e-016 -8.84302 -0.994004 36.2783 -111.658 -48.7363 -85.3298 0.180443 1.69774 -12.1645 
1.71337 81.1408 -75.9691 -0.967788 7.64236 -1.2939 9.35465 -27.5296 8.07443 175.532 75.1465 -174.84 2.57448 7.76154 -4.1249 2.87786e-016 -5 -1.25962e-015 10.2068 -16.0516 -2.05106 -0.501647 49.3901 0.181257 -4.57637 -17.6439 -15.4769 -9.3427e-016 -5 -1.59635e-015 5.34588 13.6473 -1.67035 1.99033 -28.6086 -3.92711 -3.97569e-016 -3.18055e-015 -0 9.50833 3.16517 -39.6798 100.971 -51.3809 76.2304 -0.429654 2.59643 18.8136 -3.97569e-016 -3.18055e-015 -0 -9.49624 -7.92071 38.1014 -120.175 -45.5043 -92.3847 0.201227 1.7911 -12.8454 
1.03833 82.8479 -61.8032 -2.3617 8.33048 -3.43691 13.0643 -38.8786 13.6267 173.132 81.1112 -172.509 1.63729 4.23866 -1.21094 -8.82096e-016 -5 -9.9772e-016 10.9176 -2.96735 -0.197427 -0.2923 40.0168 0.00778661 -2.83409 -9.78215 -9.69702 -3.04142e-015 -5 1.59635e-015 6.72489 12.7826 3.53109 1.104 -28.8759 -5.91538 -1.98785e-016 3.18055e-015 -0 8.54288 9.74249 -40.7681 106.684 -50.1409 81.121 -0.576587 2.99289 21.8289 -1.98785e-016 3.18055e-015 -0 -10.3558 -10.6654 39.8625 -130.887 -39.5664 -100.847 0.261038 2.03561 -14.6445 
0.710207 84.9674 -46.3851 -3.14384 8.88175 -3.21276 12.2134 -45.8953 13.5923 9.44965 84.7972 -9.0442 1.52807 3.90519 -0.562648 1.55549e-015 -5 -3.99088e-016 9.58283 10.7025 -0.440872 -0.121346 26.3528 0.423041 -5.23327 8.54072 -1.36881 -6.31137e-016 -5 -3.99088e-016 8.10801 10.2576 6.21661 -0.542469 -27.4181 -7.97444 -8.94531e-016 -6.36111e-015 -1.98785e-016 6.75734 17.1844 -39.4643 109.701 -49.3265 83.6811 -0.59224 3.03135 22.1252 -8.94531e-016 -6.36111e-015 -1.98785e-016 -12.5311 -9.92254 41.5893 -138.073 -34.0529 -106.129 0.285903 2.12828 -15.3333 
